<svg id="Layer_1" data-name="Layer 1" xmlns="http://www.w3.org/2000/svg" viewBox="0 0 109.5 105.5"><defs><style>.cls-1{fill:#fff;}</style></defs><title>burbuja</title><path class="cls-1" d="M509.9,331.5c-14.09,0-25.73-5.28-33.65-15.26-7.36-9.28-11.25-22.07-11.25-37s3.89-27.71,11.25-37c7.92-10,19.55-15.26,33.65-15.26,14.65,0,30.76,5.74,43.08,15.34,13.23,10.31,20.52,23.42,20.52,36.91s-7.29,26.59-20.52,36.91C540.66,325.76,524.55,331.5,509.9,331.5Z" transform="translate(-464.5 -226.5)"/><path class="cls-1" d="M509.9,227.5c14.54,0,30.53,5.7,42.77,15.24C565.78,253,573,265.92,573,279.25s-7.22,26.29-20.32,36.51C540.44,325.3,524.45,331,509.9,331c-13.94,0-25.44-5.21-33.26-15.07-7.29-9.19-11.15-21.88-11.15-36.68s3.85-27.48,11.15-36.68c7.82-9.86,19.32-15.07,33.26-15.07m0-1c-30.24,0-45.4,23.62-45.4,52.75S479.66,332,509.9,332,574,308.38,574,279.25s-33.86-52.75-64.1-52.75Z" transform="translate(-464.5 -226.5)"/></svg>