<svg width="465" height="432" viewBox="0 0 465 432" fill="none" xmlns="http://www.w3.org/2000/svg">
<path d="M106.483 378.778C165.028 436.297 246.932 449.068 319.705 398.931C382.515 355.658 416.208 283.762 420.656 209.815C425.12 135.63 393.36 57.05 313.741 37.5121C222.174 15.0422 113.688 54.6076 62.0157 130.791C27.401 181.825 -13.0722 281.797 32.363 338.548C49.3688 359.789 78.6904 378.872 101.005 394.729C155.546 433.486 228.193 440.011 291.103 414.089C389.687 373.468 458.261 250.734 443.473 147.49C420.629 -12.0041 213.843 -30.8278 96.9832 42.9225C24.1041 88.9164 -6.46109 186.522 3.65734 267.975C14.8666 358.208 95.0553 391.283 177.001 407.912C262.169 425.195 386.627 419.545 441.815 341.123C474.866 294.158 464.39 231.472 450.35 180.321C436.832 131.075 414.254 74.9304 370.255 43.8512C287.44 -14.6464 183.688 31.0505 108.843 77.6862C78.0924 96.8472 50.7945 116.271 38.2385 151.134C28.4473 178.32 28.1579 208.734 30.0284 237.143C32.8152 279.467 42.592 316.123 72.396 347.658C82.8003 358.666 95.8179 368.299 106.483 378.778Z" stroke="#1C1C1C" stroke-linecap="round" stroke-linejoin="round"/>
</svg>
