<svg id="Layer_1" data-name="Layer 1" xmlns="http://www.w3.org/2000/svg" viewBox="0 0 10.29 11.4"><defs><style>.cls-1,.cls-3{fill:#fff;}.cls-1,.cls-2,.cls-3,.cls-4{stroke:#000;stroke-linejoin:bevel;}.cls-1{stroke-width:0.5px;}.cls-2,.cls-4{fill:none;}.cls-2{stroke-linecap:round;}.cls-2,.cls-3,.cls-4{stroke-width:0.4px;}</style></defs><title>logoViey</title><path class="cls-1" d="M900,170.69" transform="translate(-894.91 -161.81)"/><path class="cls-1" d="M900,170.77" transform="translate(-894.91 -161.81)"/><path d="M897.77,171.61l-.41,1.16H897l-.41-1.16h.3l.29.88.29-.88Z" transform="translate(-894.91 -161.81)"/><path d="M897.91,171.71a.14.14,0,0,1,0-.11.14.14,0,0,1,0-.11.17.17,0,0,1,.12,0,.17.17,0,0,1,.12,0,.14.14,0,0,1,0,.11.14.14,0,0,1,0,.11.17.17,0,0,1-.12,0A.17.17,0,0,1,897.91,171.71Zm.26.14v.92h-.28v-.92Z" transform="translate(-894.91 -161.81)"/><path d="M899.24,172.38h-.64a.19.19,0,0,0,.06.13.17.17,0,0,0,.12,0,.15.15,0,0,0,.15-.09h.3a.41.41,0,0,1-.08.16.42.42,0,0,1-.15.11.49.49,0,0,1-.2,0,.49.49,0,0,1-.24-.06.41.41,0,0,1-.17-.17.56.56,0,0,1,0-.5.41.41,0,0,1,.16-.17.54.54,0,0,1,.48,0,.4.4,0,0,1,.16.16.49.49,0,0,1,.06.24A.71.71,0,0,1,899.24,172.38Zm-.28-.16a.15.15,0,0,0,0-.12.18.18,0,0,0-.12,0,.18.18,0,0,0-.12,0,.18.18,0,0,0-.06.12Z" transform="translate(-894.91 -161.81)"/><path d="M900.34,171.85l-.58,1.36h-.3l.21-.47-.38-.89h.32l.21.58.21-.58Z" transform="translate(-894.91 -161.81)"/><path d="M900.85,171.88a.32.32,0,0,1,.17,0v.3h-.08a.24.24,0,0,0-.16,0,.2.2,0,0,0-.05.16v.43h-.28v-.92h.28V172A.37.37,0,0,1,900.85,171.88Z" transform="translate(-894.91 -161.81)"/><path d="M901.15,172.06a.4.4,0,0,1,.15-.17.38.38,0,0,1,.21-.06.36.36,0,0,1,.17,0,.29.29,0,0,1,.11.1v-.13h.28v.92h-.28v-.13a.3.3,0,0,1-.12.1.36.36,0,0,1-.17,0,.38.38,0,0,1-.21-.06.41.41,0,0,1-.15-.17.61.61,0,0,1,0-.5Zm.58.08a.2.2,0,0,0-.29,0,.23.23,0,0,0-.06.17.23.23,0,0,0,.06.17.2.2,0,0,0,.29,0,.27.27,0,0,0,0-.33Z" transform="translate(-894.91 -161.81)"/><path d="M902.9,171.61v.7a.23.23,0,0,0,.05.16.19.19,0,0,0,.15.06.2.2,0,0,0,.15-.06.23.23,0,0,0,.05-.16v-.7h.28v.69a.49.49,0,0,1-.07.26.42.42,0,0,1-.18.16.56.56,0,0,1-.25.05.54.54,0,0,1-.25-.05.4.4,0,0,1-.17-.16.52.52,0,0,1-.06-.26v-.69Z" transform="translate(-894.91 -161.81)"/><path class="cls-2" d="M899.05,170.66l-3.67-2.41s-.69-.69.11-2.07c0,0-.92-.92,1-2.18,0,0-.34-1,1.84-1.38a2.66,2.66,0,0,1,3.33,0s2.07.34,1.84,1.38c0,0,1.84,1.26,1,2.18a1.86,1.86,0,0,1,.23,2l-4.25,2.75a.67.67,0,0,1-.92.11Z" transform="translate(-894.91 -161.81)"/><path class="cls-3" d="M896.64,163.83" transform="translate(-894.91 -161.81)"/><polyline class="cls-4" points="3.52 0.89 5.15 9.21 6.62 0.76"/><path class="cls-3" d="M903.34,163.94" transform="translate(-894.91 -161.81)"/><polyline class="cls-4" points="1.36 2.14 5.07 9.32 8.85 2.14"/></svg>