<svg width="409" height="398" viewBox="0 0 409 398" fill="none" xmlns="http://www.w3.org/2000/svg">
<path d="M362.981 224.855C417.842 156.356 303.953 83.289 222.714 45.3474C193.994 29.8907 128.058 10.946 94.0719 58.8214C51.5891 118.666 2.38875 293.696 113.014 322.573C121.178 334.382 199.827 324.644 223.65 308.001C278.335 269.797 294.403 310.478 362.981 224.855Z" fill="#FEA701"/>
<path d="M233.818 183.348L222.169 167.187C213.146 154.663 207.023 140.648 203.974 125.522L201.105 111.299C200.807 109.823 199.512 108.765 198.004 108.762H198C196.497 108.762 195.197 109.817 194.899 111.289L191.877 126.044C188.781 141.138 182.627 155.119 173.588 167.599L162.183 183.344C161.573 184.183 161.419 185.266 161.762 186.245L172.845 217.649C173.292 218.914 174.49 219.759 175.833 219.759H220.166C221.509 219.759 222.707 218.914 223.153 217.647L234.236 186.243C234.578 185.267 234.425 184.187 233.818 183.348ZM217.925 213.438H178.075L168.288 185.704L178.723 171.302C188.194 158.225 194.67 143.595 197.98 127.803C201.276 143.418 207.681 157.903 217.032 170.878L227.716 185.701L217.925 213.438Z" fill="white"/>
<path d="M198 178.675C191.014 178.675 185.334 184.346 185.334 191.317C185.334 198.288 191.014 203.957 198 203.957C204.986 203.957 210.666 198.289 210.666 191.318C210.666 184.344 204.986 178.675 198 178.675ZM198 197.637C194.509 197.637 191.666 194.801 191.666 191.317C191.666 187.832 194.508 184.996 198 184.996C201.492 184.996 204.334 187.832 204.334 191.317C204.334 194.802 201.491 197.637 198 197.637Z" fill="white"/>
<path d="M220.166 213.438H175.834C174.084 213.438 172.667 214.851 172.667 216.597V260.839C172.667 262.586 174.084 264 175.834 264H220.167C221.917 264 223.334 262.586 223.334 260.839V216.597C223.334 214.851 221.916 213.438 220.166 213.438ZM217 257.679H179V219.757H217V257.679Z" fill="white"/>
<path d="M198 112.314C196.25 112.314 194.834 113.727 194.834 115.474V166.037C194.834 167.783 196.25 169.197 198 169.197C199.75 169.197 201.166 167.783 201.166 166.037V115.473C201.166 113.727 199.75 112.314 198 112.314Z" fill="white"/>
<path d="M207.5 213.439H188.5C179.769 213.439 172.666 220.528 172.666 229.24C172.666 237.951 179.769 245.04 188.5 245.04H207.5C216.231 245.04 223.334 237.951 223.334 229.24C223.334 220.528 216.231 213.439 207.5 213.439ZM207.5 238.72H188.5C183.261 238.72 179 234.467 179 229.24C179 224.012 183.261 219.758 188.5 219.758H207.5C212.739 219.758 217 224.011 217 229.24C217 234.467 212.739 238.72 207.5 238.72Z" fill="white"/>
<path d="M198 74C196.25 74 194.834 75.4139 194.834 77.1608V96.1209C194.834 97.8669 196.25 99.2808 198 99.2808C199.75 99.2808 201.166 97.8669 201.166 96.1209V77.1608C201.166 75.4139 199.75 74 198 74Z" fill="white"/>
<path d="M235.072 84.4073C233.836 83.1725 231.831 83.1725 230.595 84.4073L214.761 100.208C213.525 101.441 213.525 103.441 214.761 104.676C215.38 105.293 216.189 105.601 217 105.601C217.811 105.601 218.62 105.292 219.239 104.676L235.072 88.8753C236.309 87.6423 236.309 85.6421 235.072 84.4073Z" fill="white"/>
<path d="M181.239 100.208L165.406 84.4073C164.169 83.1725 162.164 83.1725 160.929 84.4073C159.692 85.6403 159.692 87.6405 160.929 88.8753L176.762 104.676C177.381 105.293 178.19 105.601 179.001 105.601C179.812 105.601 180.621 105.292 181.24 104.676C182.475 103.442 182.475 101.442 181.239 100.208Z" fill="white"/>
<path d="M175.834 118.242H156.834C155.084 118.242 153.667 119.656 153.667 121.403C153.667 123.149 155.084 124.562 156.834 124.562H175.834C177.583 124.562 179 123.149 179 121.403C179 119.656 177.583 118.242 175.834 118.242Z" fill="white"/>
<path d="M239.166 118.242H220.166C218.417 118.242 217 119.656 217 121.403C217 123.149 218.418 124.562 220.166 124.562H239.166C240.916 124.562 242.333 123.149 242.333 121.403C242.334 119.656 240.916 118.242 239.166 118.242Z" fill="white"/>
</svg>
