<svg id="Layer_1" data-name="Layer 1" xmlns="http://www.w3.org/2000/svg" viewBox="0 0 153.21 81.96"><defs><style>.cls-1{opacity:0.5;}.cls-2{fill:#e7928a;}</style></defs><title>rayas</title><g class="cls-1"><path class="cls-2" d="M460.52,277.34c3.35-9.15,12.78-18.12,22.25-10.24,4.51,3.75,7.57,9.14,13.17,11.51,14.13,6,20.44-9.25,31.44-13.8,10.77-4.45,14.6,7.06,21.58,12.26,4.76,3.55,10.56,5.08,16.27,3,7.1-2.62,11.4-9.23,17.85-12.85,11.51-6.45,18.44,3.69,22.9,13,.83,1.74,3.42.22,2.59-1.51-5-10.52-13.63-21.3-26.3-14.5-6.35,3.41-10.65,9.8-17.31,12.66-9.21,3.95-15.81-3.21-21.08-9.72-7.93-9.78-18.19-6.33-26.31,1-5.3,4.76-11.1,10.52-18.95,8.28-6.44-1.84-9.65-8.37-14.71-12.2-11.16-8.46-22.37,1.66-26.28,12.36-.66,1.82,2.23,2.6,2.89.8Z" transform="translate(-455.53 -261.04)"/></g><g class="cls-1"><path class="cls-2" d="M460.52,292.34c3.35-9.15,12.78-18.12,22.25-10.24,4.51,3.75,7.57,9.14,13.17,11.51,14.13,6,20.44-9.25,31.44-13.8,10.77-4.45,14.6,7.06,21.58,12.26,4.76,3.55,10.56,5.08,16.27,3,7.1-2.62,11.4-9.23,17.85-12.85,11.51-6.45,18.44,3.69,22.9,13,.83,1.74,3.42.22,2.59-1.51-5-10.52-13.63-21.3-26.3-14.5-6.35,3.41-10.65,9.8-17.31,12.66-9.21,3.95-15.81-3.21-21.08-9.72-7.93-9.78-18.19-6.33-26.31,1-5.3,4.76-11.1,10.52-18.95,8.28-6.44-1.84-9.65-8.37-14.71-12.2-11.16-8.46-22.37,1.66-26.28,12.36-.66,1.82,2.23,2.6,2.89.8Z" transform="translate(-455.53 -261.04)"/></g><g class="cls-1"><path class="cls-2" d="M460.52,308.34c3.35-9.15,12.78-18.12,22.25-10.24,4.51,3.75,7.57,9.14,13.17,11.51,14.13,6,20.44-9.25,31.44-13.8,10.77-4.45,14.6,7.06,21.58,12.26,4.76,3.55,10.56,5.08,16.27,3,7.1-2.62,11.4-9.23,17.85-12.85,11.51-6.45,18.44,3.69,22.9,13,.83,1.74,3.42.22,2.59-1.51-5-10.52-13.63-21.3-26.3-14.5-6.35,3.41-10.65,9.8-17.31,12.66-9.21,3.95-15.81-3.21-21.08-9.72-7.93-9.78-18.19-6.33-26.31,1-5.3,4.76-11.1,10.52-18.95,8.28-6.44-1.84-9.65-8.37-14.71-12.2-11.16-8.46-22.37,1.66-26.28,12.36-.66,1.82,2.23,2.6,2.89.8Z" transform="translate(-455.53 -261.04)"/></g><g class="cls-1"><path class="cls-2" d="M458.52,323.34c3.35-9.15,12.78-18.12,22.25-10.24,4.51,3.75,7.57,9.14,13.17,11.51,14.13,6,20.44-9.25,31.44-13.8,10.77-4.45,14.6,7.06,21.58,12.26,4.76,3.55,10.56,5.08,16.27,3,7.1-2.62,11.4-9.23,17.85-12.85,11.51-6.45,18.44,3.69,22.9,13,.83,1.74,3.42.22,2.59-1.51-5-10.52-13.63-21.3-26.3-14.5-6.35,3.41-10.65,9.8-17.31,12.66-9.21,3.95-15.81-3.21-21.08-9.72-7.93-9.78-18.19-6.33-26.31,1-5.3,4.76-11.1,10.52-18.95,8.28-6.44-1.84-9.65-8.37-14.71-12.2-11.16-8.46-22.37,1.66-26.28,12.36-.66,1.82,2.23,2.6,2.89.8Z" transform="translate(-455.53 -261.04)"/></g><g class="cls-1"><path class="cls-2" d="M458.52,339.34c3.35-9.15,12.78-18.12,22.25-10.24,4.51,3.75,7.57,9.14,13.17,11.51,14.13,6,20.44-9.25,31.44-13.8,10.77-4.45,14.6,7.06,21.58,12.26,4.76,3.55,10.56,5.08,16.27,3,7.1-2.62,11.4-9.23,17.85-12.85,11.51-6.45,18.44,3.69,22.9,13,.83,1.74,3.42.22,2.59-1.51-5-10.52-13.63-21.3-26.3-14.5-6.35,3.41-10.65,9.8-17.31,12.66-9.21,3.95-15.81-3.21-21.08-9.72-7.93-9.78-18.19-6.33-26.31,1-5.3,4.76-11.1,10.52-18.95,8.28-6.44-1.84-9.65-8.37-14.71-12.2-11.16-8.46-22.37,1.66-26.28,12.36-.66,1.82,2.23,2.6,2.89.8Z" transform="translate(-455.53 -261.04)"/></g></svg>