<svg width="409" height="398" viewBox="0 0 409 398" fill="none" xmlns="http://www.w3.org/2000/svg">
<path d="M362.981 224.917C417.842 156.419 303.953 83.3514 222.714 45.4098C193.994 29.9531 128.058 11.0084 94.0719 58.8838C51.5891 118.728 2.38875 293.758 113.014 322.635C121.178 334.444 199.827 324.707 223.65 308.063C278.335 269.86 294.403 310.541 362.981 224.917Z" fill="#95CED7"/>
<path d="M109.457 170.351L122.897 161.442C123.102 161.287 123.408 161.235 123.664 161.235C124.736 161.235 126.117 162.375 126.117 163.825C126.117 164.446 125.81 165.017 125.351 165.327L114.618 172.474L125.351 179.621C125.81 179.879 126.117 180.45 126.117 181.123C126.117 182.573 124.736 183.66 123.664 183.66C123.408 183.66 123.102 183.608 122.897 183.454L109.457 174.545C108.69 174.028 108.332 173.147 108.332 172.474C108.332 171.801 108.69 170.868 109.457 170.351V170.351Z" fill="white"/>
<path d="M155.502 148.549C155.502 148.867 155.45 149.132 155.292 149.395L136.074 188.07C135.76 188.704 135.08 189.073 134.347 189.073C133.142 189.073 132.304 188.07 132.304 187.119C132.304 186.854 132.356 186.591 132.461 186.326L151.731 147.494C152.045 146.807 152.621 146.542 153.302 146.542C154.349 146.542 155.502 147.335 155.502 148.549V148.549Z" fill="white"/>
<path d="M178.347 174.544L164.866 183.452C164.661 183.608 164.405 183.66 164.149 183.66C163.02 183.66 161.688 182.572 161.688 181.122C161.688 180.449 161.996 179.879 162.406 179.62L173.22 172.473L162.406 165.327C161.996 165.015 161.688 164.446 161.688 163.825C161.688 162.373 163.02 161.235 164.149 161.235C164.405 161.235 164.661 161.287 164.866 161.442L178.347 170.35C179.116 170.868 179.474 171.801 179.474 172.474C179.474 173.146 179.166 174.026 178.347 174.544Z" fill="white"/>
<path d="M198.806 198.844V139.091C198.806 132.54 193.468 127.211 186.909 127.211H100.897C94.3363 127.211 89 132.54 89 139.091V198.844C89 205.395 94.3363 210.725 100.897 210.725H186.909C193.468 210.725 198.806 205.395 198.806 198.844ZM94.608 198.844V139.091C94.608 135.629 97.4295 132.811 100.897 132.811H186.909C190.376 132.811 193.198 135.629 193.198 139.091V198.844C193.198 202.306 190.376 205.124 186.909 205.124H100.897C97.4295 205.124 94.608 202.306 94.608 198.844Z" fill="white"/>
<path d="M239.404 224.644C231.515 224.644 225.097 231.06 225.097 238.949C225.097 239.153 225.101 239.357 225.11 239.558C225.103 239.647 225.097 239.736 225.097 239.827C225.097 240.061 225.127 240.288 225.182 240.505C225.96 247.664 232.041 253.255 239.404 253.255C247.292 253.255 253.709 246.837 253.709 238.949C253.709 231.06 247.292 224.644 239.404 224.644V224.644ZM239.404 230.14C243.619 230.14 247.153 233.117 248.013 237.079H230.794C231.654 233.116 235.187 230.14 239.404 230.14ZM239.404 247.759C235.838 247.759 232.761 245.629 231.375 242.574H247.431C246.046 245.629 242.969 247.759 239.404 247.759V247.759Z" fill="white"/>
<path d="M270.669 229.138H269.199C268.69 227.599 268.061 226.094 267.321 224.648L268.378 223.589C269.845 222.117 270.655 220.157 270.655 218.071C270.655 215.985 269.847 214.025 268.378 212.552L265.666 209.833C264.195 208.36 262.24 207.547 260.162 207.547C258.559 207.547 257.03 208.03 255.74 208.927V98.9229C255.74 92.3494 250.406 87 243.849 87H148.061C141.504 87 136.17 92.3494 136.17 98.9229V118.638C136.17 120.182 137.418 121.435 138.96 121.435C140.501 121.435 141.751 120.182 141.751 118.638V111.911H250.159V209.374C249.816 209.246 249.471 209.125 249.124 209.01V207.535C249.124 203.23 245.633 199.73 241.342 199.73H237.505C233.213 199.73 229.722 203.23 229.722 207.535V208.849C228.128 209.349 226.573 209.977 225.078 210.725L224.188 209.833C222.719 208.358 220.764 207.547 218.685 207.547C216.606 207.547 214.65 208.358 213.181 209.833L210.469 212.551C208.998 214.025 208.189 215.985 208.189 218.071C208.189 220.156 208.998 222.114 210.469 223.589L211.199 224.321C210.383 225.867 209.697 227.481 209.149 229.138H208.176C203.884 229.138 200.393 232.638 200.393 236.941V236.96H141.751V218.866C141.751 217.32 140.501 216.068 138.96 216.068C137.418 216.068 136.17 217.32 136.17 218.866V249.659C136.17 256.234 141.504 261.582 148.061 261.582H208.426C208.766 262.931 209.462 264.168 210.469 265.176L213.181 267.897C214.652 269.37 216.606 270.183 218.685 270.183C220.763 270.183 222.717 269.37 224.188 267.897L224.746 267.336C226.344 268.158 228.01 268.843 229.722 269.381V270.195C229.722 274.498 233.213 278 237.505 278H241.342C245.633 278 249.124 274.498 249.124 270.195V269.22C250.777 268.671 252.388 267.982 253.929 267.166L254.658 267.897C256.129 269.372 258.082 270.183 260.162 270.183C262.24 270.183 264.195 269.372 265.666 267.897L268.378 265.178C269.848 263.703 270.658 261.743 270.658 259.659C270.658 257.576 269.848 255.616 268.378 254.141L267.487 253.248C268.232 251.75 268.859 250.19 269.357 248.592H270.669C274.961 248.592 278.453 245.092 278.453 240.789V236.941C278.453 232.638 274.961 229.138 270.669 229.138V229.138ZM141.751 106.315V98.9229C141.751 95.4343 144.58 92.5957 148.061 92.5957H243.849C247.328 92.5957 250.159 95.4343 250.159 98.9229V106.315H141.751ZM141.751 249.659V242.556H200.595C201.396 246.011 204.492 248.592 208.176 248.592H208.99C209.524 250.309 210.209 251.98 211.029 253.581L210.469 254.141C209.917 254.693 209.459 255.316 209.1 255.986H148.061C144.58 255.986 141.751 253.149 141.751 249.659V249.659ZM272.873 240.789C272.873 242.007 271.884 242.996 270.669 242.996H268.574C266.559 242.996 264.772 244.343 264.225 246.271C263.728 248.024 263.042 249.73 262.189 251.342C261.272 253.076 261.604 255.263 262.997 256.661L264.43 258.097C264.853 258.521 265.076 259.062 265.076 259.659C265.076 260.258 264.853 260.799 264.432 261.222L261.72 263.941C261.297 264.365 260.758 264.588 260.162 264.588C259.565 264.588 259.026 264.363 258.604 263.941L257.316 262.65C256.459 261.791 255.321 261.318 254.11 261.318C253.343 261.318 252.583 261.517 251.914 261.893C250.275 262.819 248.533 263.565 246.738 264.11C244.857 264.681 243.543 266.472 243.543 268.465V270.197C243.543 271.415 242.555 272.406 241.34 272.406H237.505C236.29 272.406 235.302 271.415 235.302 270.197V268.601C235.302 266.577 233.962 264.782 232.042 264.237C230.189 263.709 228.391 262.97 226.695 262.042C226.043 261.684 225.304 261.496 224.559 261.496C223.366 261.496 222.196 261.982 221.35 262.83L220.241 263.941C219.82 264.365 219.28 264.588 218.683 264.588C218.087 264.588 217.548 264.365 217.127 263.942L214.413 261.222C213.992 260.799 213.769 260.258 213.769 259.661C213.769 259.565 213.775 259.47 213.785 259.377C213.801 259.305 213.815 259.233 213.823 259.158C213.913 258.76 214.114 258.4 214.413 258.099L215.522 256.987C216.933 255.572 217.256 253.367 216.307 251.626C215.383 249.927 214.646 248.124 214.12 246.268C213.575 244.343 211.786 242.998 209.766 242.998H208.176C206.961 242.998 205.972 242.007 205.972 240.789V236.943C205.972 235.725 206.961 234.734 208.176 234.734H209.901C211.889 234.734 213.676 233.416 214.246 231.531C214.79 229.731 215.534 227.984 216.455 226.342C217.441 224.586 217.13 222.358 215.701 220.922L214.413 219.633C213.992 219.21 213.769 218.669 213.769 218.072C213.769 217.473 213.992 216.932 214.413 216.51L217.127 213.791C217.548 213.367 218.087 213.144 218.685 213.144C219.28 213.144 219.82 213.367 220.241 213.791L221.675 215.228C222.52 216.074 223.688 216.561 224.881 216.561C225.621 216.561 226.329 216.385 226.98 216.038C228.586 215.182 230.288 214.496 232.036 213.996C233.959 213.448 235.303 211.656 235.303 209.636V207.535C235.303 206.317 236.29 205.326 237.505 205.326H241.342C242.557 205.326 243.543 206.317 243.543 207.535V209.782C243.543 211.765 244.856 213.549 246.733 214.12C248.4 214.626 250.022 215.305 251.554 216.137C251.601 216.163 251.649 216.189 251.696 216.214C252.342 216.554 253.064 216.734 253.792 216.734C255.001 216.734 256.139 216.261 256.997 215.402L258.604 213.791C259.027 213.367 259.565 213.144 260.162 213.144C260.759 213.144 261.297 213.368 261.72 213.791L264.432 216.51C264.846 216.925 265.074 217.48 265.074 218.072C265.074 218.664 264.846 219.217 264.432 219.633L262.824 221.246C261.413 222.661 261.094 224.871 262.047 226.62C262.897 228.182 263.589 229.836 264.102 231.535C264.672 233.419 266.45 234.735 268.428 234.735H270.669C271.884 234.735 272.873 235.726 272.873 236.943V240.789Z" fill="white"/>
</svg>
