<svg id="Layer_1" data-name="Layer 1" xmlns="http://www.w3.org/2000/svg" xmlns:xlink="http://www.w3.org/1999/xlink" viewBox="0 0 264.2 285.43"><defs><style>.cls-1,.cls-3,.cls-5,.cls-6{fill:none;}.cls-2{fill:#e7928a;stroke:#e7928a;}.cls-2,.cls-3,.cls-4,.cls-5,.cls-6{stroke-linejoin:bevel;}.cls-2,.cls-4{stroke-width:0.4px;}.cls-3,.cls-5,.cls-6{stroke:#000;}.cls-3{stroke-linecap:round;}.cls-4{fill:#edccc3;stroke:#edccc3;}.cls-6{stroke-width:2px;}.cls-7{clip-path:url(#clip-path);}</style><clipPath id="clip-path" transform="translate(-318 -228.49)"><path class="cls-1" d="M462,254.69c43.5-6,61,3.73,67.57,51.8S512.44,431,468.94,436.91,351.9,402.22,357,354C360.78,318,418.51,260.65,462,254.69Z"/></clipPath></defs><title>vieyyyReady</title><path class="cls-2" d="M357.53,274.51c34.48-51,57.83-46.27,104.08-25.26C520,275.76,602.4,361.58,577.4,413.92s-105.6,89.25-155.16,48.61C385.27,432.23,325,322.55,357.53,274.51Z" transform="translate(-318 -228.49)"/><line class="cls-3" x1="125.32" y1="232.71" x2="223.8" y2="157.55"/><line class="cls-3" x1="135.87" y1="234.56" x2="222.41" y2="165.47"/><line class="cls-3" x1="149.46" y1="233.32" x2="220.87" y2="174.26"/><line class="cls-3" x1="163.21" y1="231.21" x2="219.02" y2="184.81"/><line class="cls-3" x1="117.02" y1="227.63" x2="219.51" y2="148.64"/><line class="cls-3" x1="104.81" y1="220.95" x2="214.41" y2="139.59"/><line class="cls-3" x1="96.15" y1="213.09" x2="211.25" y2="129.06"/><line class="cls-3" x1="87.81" y1="203.47" x2="206.3" y2="119.13"/><path class="cls-4" d="M468.45,244.59c46.63-6.38,65.36,4,72.42,55.52s-18.37,133.4-65,139.78-125.45-37.18-120-88.9C360,312.42,421.83,251,468.45,244.59Z" transform="translate(-318 -228.49)"/><path class="cls-4" d="M571.58,285.19c0,14.51-9.05,23.51-15.67,23.51s-8.3-9-8.3-23.51,1.68-22.58,8.3-22.58S571.58,270.68,571.58,285.19Z" transform="translate(-318 -228.49)"/><path class="cls-4" d="M573.42,317c0,3.31-2.22,9.22-5.53,9.22s-6.45-2.68-6.45-6,.38-6.91,3.69-6.91S573.42,313.68,573.42,317Z" transform="translate(-318 -228.49)"/><path class="cls-5" d="M342,338.32c0,2.6-2.05,7.24-5.11,7.24s-6-2.11-6-4.71.35-5.43,3.4-5.43S342,335.72,342,338.32Z" transform="translate(-318 -228.49)"/><path class="cls-5" d="M531.94,274.75c0,3.25-2.56,9.05-6.38,9.05s-7.45-2.63-7.45-5.88.44-6.79,4.25-6.79S531.94,271.5,531.94,274.75Z" transform="translate(-318 -228.49)"/><path class="cls-4" d="M421.32,254.17c0,2.36-1.71,6.58-4.25,6.58s-5-1.92-5-4.28.29-4.94,2.84-4.94S421.32,251.81,421.32,254.17Z" transform="translate(-318 -228.49)"/><path class="cls-4" d="M371.54,456.18c0,10.69-.28,15.67-4.61,15.67S354,460.42,354,449.73s2.13-11.06,6.45-11.06S371.54,445.49,371.54,456.18Z" transform="translate(-318 -228.49)"/><path class="cls-4" d="M345,444c-4.71,5.34-7,7.71-9.21,5.8s-1.41-11.4,3.3-16.75,5.94-4.59,8.1-2.69S349.66,438.65,345,444Z" transform="translate(-318 -228.49)"/><path class="cls-6" d="M513.5,393.4c0,47.06-12.83,64.22-64.83,64.22S319,421.32,319,374.26,372.85,255,423.35,267.44C461,276.7,513.5,346.34,513.5,393.4Z" transform="translate(-318 -228.49)"/><g class="cls-7"><image width="718" height="944" transform="translate(28.65) scale(0.3)" xlink:href="vieyyyyy.png"/></g></svg>